<svg width="57" height="57" viewBox="0 0 57 57" fill="none" xmlns="http://www.w3.org/2000/svg">
<rect x="0.234497" y="0.234497" width="55.8103" height="55.8103" rx="5.39344" fill="#F3F2F7" stroke="#DEE2E6" stroke-width="0.468995"/>
<g clip-path="url(#clip0_1302_207516)">
<path d="M8.00029 27.2962V19.4603C7.99672 19.2868 8.02607 19.1141 8.08679 18.9515C8.60782 17.6673 9.34866 17.1676 10.7327 17.1676C12.8867 17.1676 15.041 17.1676 17.1957 17.1676C18.4168 17.1676 19.6289 17.1574 20.8449 17.1523H23.389C24.2031 17.1574 25.0122 17.1686 25.8232 17.1676C27.7506 17.1676 29.6784 17.1625 31.6065 17.1523H34.1506C34.3154 17.1574 34.4803 17.1676 34.6441 17.1676C37.9168 17.1676 41.1899 17.1676 44.4633 17.1676C45.8565 17.1778 46.9759 18.1751 46.9891 19.498C47.0156 21.9963 46.9891 24.4946 46.9891 26.9939C46.6981 27.9607 45.9592 28.5275 45.1665 29.0506C43.0763 30.4295 40.7744 31.3097 38.3707 31.9468C35.5651 32.6907 32.6953 32.9909 29.8083 33.1618C29.8083 33.0479 29.7961 32.9349 29.7951 32.8219C29.789 32.0597 29.5234 31.789 28.7774 31.788C27.9565 31.788 27.1356 31.788 26.3147 31.788C25.4732 31.788 25.2248 32.0323 25.2177 32.8606C25.2177 32.9624 25.2096 33.0641 25.2045 33.1659C24.9277 33.1405 24.6499 33.1211 24.3731 33.0896C22.5871 32.8861 20.789 32.7629 19.0203 32.4617C16.0376 31.9603 13.164 30.9474 10.5261 29.4678C9.6102 28.9539 8.65362 28.4227 8.1682 27.3878C8.14072 27.3389 8.05524 27.3247 8.00029 27.2962Z" fill="#6790DA"/>
<path d="M9.00233 29.9423C8.80389 29.7825 8.77744 29.7774 8.69094 29.698C8.54718 29.5674 8.41818 29.4213 8.30627 29.2625C8.27472 29.2218 8.00098 28.8738 8.00098 28.024V26.9932C8.04764 27.1262 8.10131 27.2566 8.16176 27.3839C8.64718 28.4189 9.65973 28.9898 10.5196 29.464C13.1609 30.9362 16.0332 31.9486 19.0139 32.4579C20.7825 32.7632 22.5807 32.8843 24.3666 33.0858C24.6434 33.1173 24.9213 33.1367 25.1981 33.1621L25.2286 34.3833L25.1981 34.5359C24.3778 34.485 23.5566 34.4453 22.7374 34.3833C20.5137 34.2148 18.3117 33.8304 16.1624 33.2354C13.714 32.5607 11.5159 31.4148 9.32391 30.1C9.22214 30.0949 9.1041 29.9881 9.00233 29.9423Z" fill="#4A75C3"/>
<path d="M46.9581 27.0784C46.9632 27.0651 46.9855 26.9827 46.9855 26.998C46.9723 27.8854 47.0293 28.7626 46.4208 29.4607C46.2752 29.6286 46.147 29.8005 45.9862 29.9695C45.7308 30.1292 45.8275 30.2117 45.7104 30.229C44.1331 31.3911 42.3522 32.0953 40.5113 32.7222C37.0412 33.8996 33.3624 34.4929 29.707 34.5875C29.6969 34.5366 29.7681 34.442 29.7732 34.3901L29.8047 33.1689C32.6918 32.998 35.5615 32.6978 38.3672 31.9539C40.7708 31.3168 43.0727 30.4366 45.1629 29.0577C45.9333 28.5417 46.5917 27.9535 46.9581 27.0784Z" fill="#4A75C3"/>
<path d="M29.8051 33.161C29.7949 33.568 29.7844 33.9751 29.7735 34.3821C29.742 34.4778 29.7084 34.5724 29.6789 34.6681C29.5902 34.9629 29.4423 35.2365 29.2443 35.4722C29.0463 35.7078 28.8023 35.9007 28.5272 36.0389C28.2522 36.1771 27.9518 36.2577 27.6445 36.2759C27.3372 36.2941 27.0294 36.2495 26.74 36.1447C25.8923 35.8475 25.417 35.1789 25.1982 34.3496V33.161C25.1982 32.9574 25.1982 32.9839 25.1982 32.8831C25.2054 32.0558 25.4669 31.7872 26.3085 31.7861C27.1287 31.7861 27.9496 31.7861 28.7712 31.7861C29.5202 31.7861 29.799 32.0731 29.8051 32.8343C29.8061 32.9483 29.8 33.047 29.8051 33.161Z" fill="#FEE463"/>
<path d="M23.3806 15.793C23.3846 16.2475 23.3884 16.7024 23.3918 17.1576H20.8477L20.8629 15.794L23.3806 15.793Z" fill="#145AAA"/>
<path d="M31.6094 17.1576C31.6094 16.7031 31.6131 16.2482 31.6206 15.793H34.1382L34.1535 17.1566L31.6094 17.1576Z" fill="#145AAA"/>
<path d="M46.0042 31.3028C46.0042 31.4696 46.0042 31.4177 46.0042 31.4554C46.0042 35.1749 46.0133 38.8842 45.9919 42.5996C45.9838 44.0436 44.8858 45.0419 43.3848 45.0419C35.9831 45.0419 28.5822 45.0419 21.1819 45.0419H11.6995C10.0133 45.0419 9.00586 44.0243 9.00586 42.334C9.00586 38.7668 9.00586 35.2 9.00586 31.6335C9.00586 31.5073 9.00586 31.3913 9.00586 31.2539C9.0909 31.2928 9.17379 31.3363 9.25416 31.3842C11.1633 32.8089 13.3247 33.7034 15.5737 34.4045C16.0062 34.5388 16.4194 34.7393 16.8559 34.8523C17.2925 34.9652 17.723 34.9978 18.1585 35.0639C19.6473 35.2899 21.1341 35.5443 22.628 35.7305C23.5021 35.8404 24.3905 35.8414 25.2738 35.8903C25.5659 36.8061 26.1561 37.4167 27.1219 37.5785C28.3614 37.7821 29.3047 37.1338 29.7677 35.8007C29.899 35.8343 30.0323 35.9025 30.1616 35.8964C30.7406 35.8618 31.3196 35.8262 31.8915 35.7529C33.4231 35.5585 34.9648 35.411 36.4801 35.124C39.7609 34.5032 42.8759 33.4255 45.6388 31.4839C45.7548 31.4125 45.8771 31.3519 46.0042 31.3028Z" fill="#4A75C3"/>
<path d="M34.1377 15.7941H31.6201C31.615 15.4654 31.5916 15.1346 31.6109 14.8069C31.6262 14.5474 31.5234 14.4274 31.2914 14.3276C29.5937 13.5948 27.7173 13.3799 25.8979 13.7099C25.156 13.8371 24.4417 14.117 23.7141 14.3317C23.4729 14.4019 23.3762 14.5454 23.3925 14.8069C23.4138 15.1346 23.3925 15.4654 23.3833 15.7941H20.8626C20.8626 15.0725 20.8402 14.35 20.8565 13.6295C20.8677 13.1574 21.1537 12.8388 21.5383 12.5946C22.8572 11.7571 24.3134 11.3053 25.8511 11.1109C28.2181 10.8117 30.5017 11.1058 32.6693 12.1417C32.6927 12.1529 33.17 12.4247 33.1934 12.4338C34.2812 13.0658 34.1204 13.1818 34.1377 14.5027C34.1377 14.9688 34.1459 15.3636 34.1377 15.7941Z" fill="#4A75C3"/>
<path d="M25.269 35.9648C24.3867 35.9149 23.4993 35.9139 22.6231 35.805C21.1282 35.6188 19.6424 35.3644 18.1526 35.1375C17.7177 35.0669 17.2867 34.9742 16.8612 34.8597C16.4247 34.7477 16.0013 34.6134 15.5688 34.4791C13.3178 33.7779 11.1594 32.8783 9.25132 31.4587C9.17227 31.4042 9.09041 31.3539 9.00606 31.3081L9.00098 29.9414C9.10274 29.9872 9.23096 30.0483 9.3195 30.0991C11.5369 31.3753 13.7126 32.5598 16.1611 33.2345C18.3103 33.8295 20.5124 34.2139 22.7361 34.3824C23.5553 34.4445 24.3765 34.4841 25.1967 34.535C25.2211 35.0113 25.2452 35.4879 25.269 35.9648Z" fill="#145AAA"/>
<path d="M46.0041 31.3527C45.8647 31.4362 45.7487 31.5094 45.6368 31.5786C42.8729 33.5203 39.7589 34.5837 36.478 35.2045C34.9627 35.4904 33.4251 35.639 31.8895 35.8334C31.317 35.9226 30.7388 35.9706 30.1595 35.9769C30.0303 35.9769 29.9407 35.9769 29.7646 35.9769C29.7789 35.5301 29.7555 34.9918 29.7697 34.545C33.4261 34.4514 37.0428 33.8999 40.513 32.7225C42.3569 32.0956 44.1215 31.31 45.7029 30.1488C45.7507 30.1193 45.8047 30.0725 46.0184 29.9453C46.0082 30.4155 46.0062 30.8663 46.0041 31.3527Z" fill="#145AAA"/>
<path d="M29.7783 34.5861C29.7651 35.0329 29.7783 35.5234 29.7681 35.9701C29.3051 37.3032 28.3617 37.8599 27.1223 37.6543C26.1555 37.4935 25.494 36.8799 25.201 35.962C25.1949 35.4878 25.201 35.0563 25.201 34.5495C25.201 34.4569 25.201 34.2839 25.201 34.3511C25.201 34.3511 25.895 35.849 26.7427 36.1462C27.0318 36.2501 27.3391 36.2942 27.6458 36.2756C27.9526 36.257 28.2523 36.1762 28.5268 36.038C28.8012 35.8999 29.0447 35.7073 29.2424 35.472C29.4401 35.2368 29.5878 34.9638 29.6765 34.6696C29.706 34.5739 29.7396 34.4793 29.7712 34.3836C29.7783 34.4447 29.7783 34.522 29.7783 34.5861Z" fill="#FFC61B"/>
</g>
<defs>
<clipPath id="clip0_1302_207516">
<rect width="39" height="34.0421" fill="white" transform="translate(8 11)"/>
</clipPath>
</defs>
</svg>
